STARTFONT 2.1
FONT -Monotype-Century Gothic-Regular-R-Normal--33-240-100-100-P-149-iso8859-9
SIZE 24 100 100
FONTBOUNDINGBOX 44 38 -6 -6

STARTPROPERTIES 24
FOUNDRY "Monotype"
FAMILY_NAME "Century Gothic"
WEIGHT_NAME "Regular"
SLANT "R"
SETWIDTH_NAME "Normal"
ADD_STYLE_NAME ""
PIXEL_SIZE 33
POINT_SIZE 240
RESOLUTION_X 100
RESOLUTION_Y 100
SPACING "P"
AVERAGE_WIDTH 149
CHARSET_REGISTRY "iso8859"
CHARSET_ENCODING "9"
FACE_NAME "Century Gothic ISO Latin5"
_DEC_DEVICE_FONTNAMES "PS=centurygothic-lat5"
COPYRIGHT "Copyright (c) 1993 Monotype Typography Ltd."
CAP_HEIGHT 27
X_HEIGHT 20
WEIGHT 10
QUAD_WIDTH 22
DEFAULT_CHAR 160
FONT_DESCENT 6
FONT_ASCENT 32
ENDPROPERTIES

CHARS 191

STARTCHAR space
ENCODING 32
SWIDTH 277 0
DWIDTH 9 0
BBX 0 0 0 0
BITMAP
ENDCHAR

STARTCHAR exclam
ENCODING 33
SWIDTH 295 0
DWIDTH 10 0
BBX 4 24 3 0
BITMAP
60
60
60
60
60
60
60
60
60
60
60
60
60
60
60
60
60
60
00
00
60
F0
F0
60
ENDCHAR

STARTCHAR quotedbl
ENCODING 34
SWIDTH 309 0
DWIDTH 10 0
BBX 8 8 1 16
BITMAP
C3
C3
C3
C3
C3
C3
C3
C3
ENDCHAR

STARTCHAR numbersign
ENCODING 35
SWIDTH 720 0
DWIDTH 24 0
BBX 18 25 3 0
BITMAP
030600
030600
030600
030600
030600
020600
020400
060400
7FFFC0
7FFFC0
060C00
060C00
040C00
0C0800
0C1800
FFFF80
FFFF80
0C1800
081800
081000
181000
183000
183000
183000
183000
ENDCHAR

STARTCHAR dollar
ENCODING 36
SWIDTH 554 0
DWIDTH 18 0
BBX 16 31 1 -5
BITMAP
00C0
00C0
07F0
0FF8
1CDC
38CC
30C4
30C0
30C0
38C0
1CC0
0FC0
07C0
01F0
00F8
00DE
00CE
00C7
00C3
00C3
00C3
E0C3
70C7
3CDE
1FFC
07F0
00C0
00C0
00C0
00C0
00C0
ENDCHAR

STARTCHAR percent
ENCODING 37
SWIDTH 775 0
DWIDTH 26 0
BBX 24 26 1 -2
BITMAP
1F00F8
3FFFF0
71FE70
E0E060
C060C0
C060C0
C06180
E0E300
71C300
3F8600
1F0C00
000C00
001800
003000
0030F8
0063FE
00C30E
00C607
018603
030603
030603
060707
0C038E
0C01FC
1800F8
380000
ENDCHAR

STARTCHAR ampersand
ENCODING 38
SWIDTH 757 0
DWIDTH 25 0
BBX 21 23 3 0
BITMAP
07E000
0FF000
1C3800
181800
181800
1C3800
1C3800
0E7000
07E000
03C000
078000
0EC000
3CE000
787000
703840
E01CF0
E00FE0
C007C0
E00F80
E01EC0
7878E0
3FF070
1FC038
ENDCHAR

STARTCHAR quoteright
ENCODING 39
SWIDTH 351 0
DWIDTH 12 0
BBX 3 9 4 15
BITMAP
E0
E0
E0
E0
60
60
60
C0
40
ENDCHAR

STARTCHAR parenleft
ENCODING 40
SWIDTH 369 0
DWIDTH 12 0
BBX 6 32 4 -6
BITMAP
1C
18
38
30
70
70
60
60
60
E0
E0
E0
E0
C0
C0
C0
C0
C0
C0
C0
C0
E0
E0
E0
E0
60
60
70
70
30
30
38
ENDCHAR

STARTCHAR parenright
ENCODING 41
SWIDTH 369 0
DWIDTH 12 0
BBX 6 32 2 -6
BITMAP
70
30
30
38
18
18
18
1C
1C
0C
0C
0C
0C
0C
0C
0C
0C
0C
0C
0C
0C
1C
1C
18
18
18
38
30
30
70
70
E0
ENDCHAR

STARTCHAR asterisk
ENCODING 42
SWIDTH 425 0
DWIDTH 14 0
BBX 12 12 1 12
BITMAP
0600
0600
4620
E670
3EC0
0700
0F00
FEF0
6660
4620
0600
0600
ENDCHAR

STARTCHAR plus
ENCODING 43
SWIDTH 606 0
DWIDTH 20 0
BBX 16 16 2 4
BITMAP
0180
0180
0180
0180
0180
0180
0180
FFFF
FFFF
0180
0180
0180
0180
0180
0180
0180
ENDCHAR

STARTCHAR comma
ENCODING 44
SWIDTH 277 0
DWIDTH 9 0
BBX 5 7 2 -3
BITMAP
38
38
30
60
60
C0
40
ENDCHAR

STARTCHAR minus
ENCODING 45
SWIDTH 606 0
DWIDTH 20 0
BBX 16 2 2 11
BITMAP
FFFF
FFFF
ENDCHAR

STARTCHAR period
ENCODING 46
SWIDTH 277 0
DWIDTH 9 0
BBX 4 4 3 0
BITMAP
60
F0
F0
60
ENDCHAR

STARTCHAR slash
ENCODING 47
SWIDTH 437 0
DWIDTH 14 0
BBX 12 28 1 -4
BITMAP
0030
0030
0070
0060
00E0
00E0
00C0
01C0
01C0
0180
0380
0300
0300
0700
0600
0600
0E00
0C00
1C00
1C00
1800
3800
3800
3000
7000
6000
6000
E000
ENDCHAR

STARTCHAR zero
ENCODING 48
SWIDTH 554 0
DWIDTH 18 0
BBX 16 24 1 0
BITMAP
07E0
1FF0
3C3C
301C
700E
6006
E007
E007
C003
C003
C003
C003
C003
C003
C003
C003
E007
E007
6006
700E
381C
3C38
1FF0
07E0
ENDCHAR

STARTCHAR one
ENCODING 49
SWIDTH 554 0
DWIDTH 18 0
BBX 6 24 5 0
BITMAP
7C
FC
0C
0C
0C
0C
0C
0C
0C
0C
0C
0C
0C
0C
0C
0C
0C
0C
0C
0C
0C
0C
0C
0C
ENDCHAR

STARTCHAR two
ENCODING 50
SWIDTH 554 0
DWIDTH 18 0
BBX 16 24 1 0
BITMAP
03F0
0FFC
1E1E
380E
3007
7003
6003
6003
0003
0007
0006
000E
001C
0038
0070
00E0
01E0
01C0
0380
0700
0E00
1C00
3FFF
FFFF
ENDCHAR

STARTCHAR three
ENCODING 51
SWIDTH 554 0
DWIDTH 18 0
BBX 16 24 1 0
BITMAP
07E0
0FF8
1E3C
380E
380E
3006
0006
000E
001E
00FC
01F0
01FC
001E
000F
0007
0003
0003
E003
6003
7007
700E
3C3C
1FF8
07E0
ENDCHAR

STARTCHAR four
ENCODING 52
SWIDTH 554 0
DWIDTH 18 0
BBX 16 24 1 0
BITMAP
0008
0008
0018
0038
0078
0078
00E8
01D8
0198
0398
0718
0E18
0C18
1C18
3818
7018
7FFF
FFFF
0018
0018
0018
0018
0018
0018
ENDCHAR

STARTCHAR five
ENCODING 53
SWIDTH 554 0
DWIDTH 18 0
BBX 15 24 2 0
BITMAP
0FFE
0FFE
0C00
0C00
1C00
1C00
1800
1800
1FE0
3FF8
383C
001C
000E
000E
0006
0006
0006
000E
C00E
E00C
701C
7878
3FF0
0FC0
ENDCHAR

STARTCHAR six
ENCODING 54
SWIDTH 554 0
DWIDTH 18 0
BBX 14 24 3 0
BITMAP
0040
0060
00E0
01C0
0380
0380
0700
0E00
0E00
1800
3FC0
3FF0
7878
7018
E01C
C00C
C00C
C00C
C00C
E01C
7038
7878
3FF0
0FC0
ENDCHAR

STARTCHAR seven
ENCODING 55
SWIDTH 554 0
DWIDTH 18 0
BBX 15 24 2 0
BITMAP
FFFE
FFFE
000C
0018
0038
0030
0070
0060
00E0
00C0
01C0
0180
0380
0300
0700
0600
0E00
0C00
1C00
1800
3800
7000
6000
2000
ENDCHAR

STARTCHAR eight
ENCODING 56
SWIDTH 554 0
DWIDTH 18 0
BBX 16 24 1 0
BITMAP
07E0
1FF8
3C3C
700E
700E
6006
6006
700E
300E
1C3C
0FF0
1FF8
3C1C
700E
E007
E003
C003
C003
C003
E007
700E
383C
1FF8
07E0
ENDCHAR

STARTCHAR nine
ENCODING 57
SWIDTH 554 0
DWIDTH 18 0
BBX 14 24 2 0
BITMAP
0FC0
3FF0
7878
7038
E01C
C00C
C00C
C00C
C00C
E01C
7038
7878
3FF0
0FF0
00E0
01C0
01C0
0380
0700
0600
0E00
1C00
1800
0800
ENDCHAR

STARTCHAR colon
ENCODING 58
SWIDTH 277 0
DWIDTH 9 0
BBX 4 18 3 0
BITMAP
60
F0
F0
60
00
00
00
00
00
00
00
00
00
00
60
F0
F0
60
ENDCHAR

STARTCHAR semicolon
ENCODING 59
SWIDTH 277 0
DWIDTH 9 0
BBX 5 21 2 -3
BITMAP
30
78
78
30
00
00
00
00
00
00
00
00
00
00
38
38
30
60
60
C0
40
ENDCHAR

STARTCHAR less
ENCODING 60
SWIDTH 606 0
DWIDTH 20 0
BBX 16 18 2 3
BITMAP
0001
0003
000F
003E
01F8
07E0
1F80
7C00
E000
F000
FC00
1F00
07C0
01F0
007C
001F
0003
0001
ENDCHAR

STARTCHAR equal
ENCODING 61
SWIDTH 606 0
DWIDTH 20 0
BBX 16 9 2 7
BITMAP
FFFF
FFFF
0000
0000
0000
0000
0000
FFFF
FFFF
ENDCHAR

STARTCHAR greater
ENCODING 62
SWIDTH 606 0
DWIDTH 20 0
BBX 16 18 2 3
BITMAP
8000
C000
F000
7C00
1F00
07E0
01F8
003E
0007
000F
003F
00F8
03E0
0F80
7E00
F800
C000
8000
ENDCHAR

STARTCHAR question
ENCODING 63
SWIDTH 591 0
DWIDTH 20 0
BBX 14 24 3 0
BITMAP
0FE0
3FF0
3838
701C
600C
E00C
E01C
0038
00F0
07E0
1F00
3C00
3800
3018
3038
3C78
1FF0
0FC0
0000
0000
0380
0780
0780
0300
ENDCHAR

STARTCHAR at
ENCODING 64
SWIDTH 867 0
DWIDTH 29 0
BBX 24 25 2 0
BITMAP
00FF80
03C1E0
0E0030
180018
100004
200006
607CC2
40FEC3
41C3C1
C381C1
8301C1
870181
860181
860183
860182
C70382
C70384
438708
61FDB0
20F3C0
300006
18001C
0E0030
03C1E0
00FF80
ENDCHAR

STARTCHAR A
ENCODING 65
SWIDTH 740 0
DWIDTH 24 0
BBX 23 24 1 0
BITMAP
001000
003000
003800
007800
007C00
00EC00
00EE00
00CE00
01C700
018700
038300
030380
070180
0601C0
0FFFC0
0FFFE0
1C0060
180070
380030
380038
700038
70001C
E0001C
E0000E
ENDCHAR

STARTCHAR B
ENCODING 66
SWIDTH 574 0
DWIDTH 19 0
BBX 14 24 3 0
BITMAP
FF80
FFC0
C1E0
C070
C030
C030
C030
C070
C070
C1E0
FF80
FFE0
C1F0
C038
C01C
C01C
C00C
C00C
C00C
C01C
C038
C0F8
FFF0
FFC0
ENDCHAR

STARTCHAR C
ENCODING 67
SWIDTH 813 0
DWIDTH 27 0
BBX 23 24 2 0
BITMAP
00FF80
03FFE0
0FC0F8
1E003C
3C000E
380004
700000
600000
E00000
E00000
C00000
C00000
C00000
C00000
E00000
E00000
600000
700000
380004
3C000E
1E003C
0FC0F8
03FFE0
007F80
ENDCHAR

STARTCHAR D
ENCODING 68
SWIDTH 744 0
DWIDTH 25 0
BBX 20 24 3 0
BITMAP
FFF000
FFFE00
C03F00
C00780
C001C0
C001E0
C000E0
C00070
C00070
C00070
C00030
C00030
C00030
C00030
C00030
C00070
C00070
C000E0
C000E0
C001C0
C00780
C03F00
FFFE00
FFF800
ENDCHAR

STARTCHAR E
ENCODING 69
SWIDTH 536 0
DWIDTH 18 0
BBX 13 24 3 0
BITMAP
FFF8
FFF8
C000
C000
C000
C000
C000
C000
C000
C000
FFF8
FFF8
C000
C000
C000
C000
C000
C000
C000
C000
C000
C000
FFF8
FFF8
ENDCHAR

STARTCHAR F
ENCODING 70
SWIDTH 485 0
DWIDTH 16 0
BBX 12 24 3 0
BITMAP
FFF0
FFF0
C000
C000
C000
C000
C000
C000
C000
C000
FFF0
FFF0
C000
C000
C000
C000
C000
C000
C000
C000
C000
C000
C000
C000
ENDCHAR

STARTCHAR G
ENCODING 71
SWIDTH 872 0
DWIDTH 29 0
BBX 25 24 2 0
BITMAP
00FF8000
03FFF000
0FC1F800
1F003C00
3C000E00
38000400
70000000
70000000
E0000000
E0000000
C0000000
C0000000
C0000000
C001FF80
E001FF80
E0000380
60000300
70000700
38000700
3C000E00
1E003C00
07C0F800
03FFF000
007F8000
ENDCHAR

STARTCHAR H
ENCODING 72
SWIDTH 683 0
DWIDTH 23 0
BBX 16 24 3 0
BITMAP
C003
C003
C003
C003
C003
C003
C003
C003
C003
C003
FFFF
FFFF
C003
C003
C003
C003
C003
C003
C003
C003
C003
C003
C003
C003
ENDCHAR

STARTCHAR I
ENCODING 73
SWIDTH 226 0
DWIDTH 7 0
BBX 2 24 3 0
BITMAP
C0
C0
C0
C0
C0
C0
C0
C0
C0
C0
C0
C0
C0
C0
C0
C0
C0
C0
C0
C0
C0
C0
C0
C0
ENDCHAR

STARTCHAR J
ENCODING 74
SWIDTH 482 0
DWIDTH 16 0
BBX 11 24 2 0
BITMAP
0060
0060
0060
0060
0060
0060
0060
0060
0060
0060
0060
0060
0060
0060
0060
0060
0060
0060
0060
0060
C0E0
F1C0
7FC0
1F00
ENDCHAR

STARTCHAR K
ENCODING 75
SWIDTH 591 0
DWIDTH 20 0
BBX 16 24 3 0
BITMAP
C01E
C038
C070
C0E0
C1C0
C380
C700
CE00
DC00
F800
F000
F000
F800
DC00
CE00
C700
C380
C1C0
C0E0
C070
C078
C03C
C01E
C00F
ENDCHAR

STARTCHAR L
ENCODING 76
SWIDTH 462 0
DWIDTH 15 0
BBX 11 24 3 0
BITMAP
C000
C000
C000
C000
C000
C000
C000
C000
C000
C000
C000
C000
C000
C000
C000
C000
C000
C000
C000
C000
C000
C000
FFE0
FFE0
ENDCHAR

STARTCHAR M
ENCODING 77
SWIDTH 919 0
DWIDTH 30 0
BBX 27 24 2 0
BITMAP
10000200
10000200
18000300
18000700
1C000700
3C000F00
3E000F00
36001D00
37001B00
33003B80
33803380
31807180
71C06180
70C0E180
60E0C180
6061C180
607181C0
603381C0
603B01C0
E01B00C0
E01E00C0
C00E00C0
C00C00C0
C00400E0
ENDCHAR

STARTCHAR N
ENCODING 78
SWIDTH 740 0
DWIDTH 24 0
BBX 18 24 3 0
BITMAP
8000C0
8000C0
C000C0
E000C0
F000C0
F800C0
DC00C0
CE00C0
CE00C0
C700C0
C380C0
C1C0C0
C0E0C0
C070C0
C038C0
C038C0
C01CC0
C00EC0
C007C0
C003C0
C001C0
C000C0
C00040
C00040
ENDCHAR

STARTCHAR O
ENCODING 79
SWIDTH 869 0
DWIDTH 29 0
BBX 25 24 2 0
BITMAP
00FF8000
03FFE000
0FC1F800
1E003C00
3C001E00
38000E00
70000700
60000300
E0000380
E0000380
C0000180
C0000180
C0000180
C0000180
E0000380
E0000380
60000300
70000700
38000E00
3C001E00
1E003C00
07C1F800
03FFE000
00FF8000
ENDCHAR

STARTCHAR P
ENCODING 80
SWIDTH 592 0
DWIDTH 20 0
BBX 14 24 3 0
BITMAP
FFE0
FFF0
C038
C01C
C00C
C00C
C00C
C01C
C01C
C078
FFF0
FFE0
C000
C000
C000
C000
C000
C000
C000
C000
C000
C000
C000
C000
ENDCHAR

STARTCHAR Q
ENCODING 81
SWIDTH 871 0
DWIDTH 29 0
BBX 25 25 2 -1
BITMAP
00FF8000
03FFE000
0FC0F800
1E003C00
3C001E00
38000E00
70000700
60000300
E0000380
E0000380
C0000180
C0000180
C0000180
C0000180
E00F0380
E0038380
60038300
7001C700
3800EE00
3C007E00
1E003C00
07C1F800
03FFEC00
00FF8E00
00000780
ENDCHAR

STARTCHAR R
ENCODING 82
SWIDTH 607 0
DWIDTH 20 0
BBX 15 24 3 0
BITMAP
FFE0
FFF0
C078
C01C
C01C
C00C
C00C
C00C
C01C
C038
FFF8
FFF0
FD80
CE00
C700
C300
C380
C1C0
C0E0
C060
C070
C038
C01C
C01E
ENDCHAR

STARTCHAR S
ENCODING 83
SWIDTH 498 0
DWIDTH 16 0
BBX 14 24 0 0
BITMAP
0FE0
1FF0
3C78
381C
3008
3000
3800
3800
1C00
0F00
0780
03C0
01E0
0070
0038
001C
001C
000C
600C
E01C
701C
3C78
1FF0
07C0
ENDCHAR

STARTCHAR T
ENCODING 84
SWIDTH 426 0
DWIDTH 14 0
BBX 13 24 0 0
BITMAP
FFF8
FFF8
0300
0300
0300
0300
0300
0300
0300
0300
0300
0300
0300
0300
0300
0300
0300
0300
0300
0300
0300
0300
0300
0300
ENDCHAR

STARTCHAR U
ENCODING 85
SWIDTH 655 0
DWIDTH 22 0
BBX 15 24 3 0
BITMAP
C006
C006
C006
C006
C006
C006
C006
C006
C006
C006
C006
C006
C006
C006
C006
C006
C006
C006
E00E
600C
701C
3838
1FF0
0FE0
ENDCHAR

STARTCHAR V
ENCODING 86
SWIDTH 702 0
DWIDTH 23 0
BBX 21 24 1 0
BITMAP
E00038
600038
700070
300070
380060
3800E0
1800C0
1C01C0
0C0180
0E0380
060380
070300
070700
030600
038E00
018C00
01DC00
00DC00
00F800
00F800
007000
007000
002000
002000
ENDCHAR

STARTCHAR W
ENCODING 87
SWIDTH 960 0
DWIDTH 32 0
BBX 28 24 2 0
BITMAP
C0040030
C0060070
E0060060
600E0060
600F00E0
701F00E0
701D80C0
301980C0
303981C0
3831C180
3870C180
1870E380
1C60E380
1CE06300
0CC07300
0DC03700
0EC03A00
0F803E00
07801E00
07001E00
07000C00
03000C00
02000C00
02000400
ENDCHAR

STARTCHAR X
ENCODING 88
SWIDTH 609 0
DWIDTH 20 0
BBX 18 24 1 0
BITMAP
7001C0
700380
380700
1C0700
1C0E00
0E1C00
061C00
073800
03B000
03F000
01E000
00E000
01E000
03F000
03B000
073800
071C00
0E1C00
1C0E00
1C0600
380700
300380
700380
E001C0
ENDCHAR

STARTCHAR Y
ENCODING 89
SWIDTH 592 0
DWIDTH 20 0
BBX 18 24 1 0
BITMAP
E001C0
700380
300300
380700
1C0E00
1C0C00
0E1C00
073800
073800
03B000
01E000
01E000
00C000
00C000
00C000
00C000
00C000
00C000
00C000
00C000
00C000
00C000
00C000
00C000
ENDCHAR

STARTCHAR Z
ENCODING 90
SWIDTH 480 0
DWIDTH 16 0
BBX 13 24 1 0
BITMAP
7FF8
7FF8
0030
0070
0060
00E0
00C0
01C0
01C0
0180
0380
0300
0700
0600
0E00
0C00
1C00
1C00
3800
3800
3000
7000
7FF8
FFF8
ENDCHAR

STARTCHAR bracketleft
ENCODING 91
SWIDTH 351 0
DWIDTH 12 0
BBX 5 30 5 -6
BITMAP
F8
F8
C0
C0
C0
C0
C0
C0
C0
C0
C0
C0
C0
C0
C0
C0
C0
C0
C0
C0
C0
C0
C0
C0
C0
C0
C0
C0
F8
F8
ENDCHAR

STARTCHAR backslash
ENCODING 92
SWIDTH 605 0
DWIDTH 20 0
BBX 18 28 1 -4
BITMAP
E00000
600000
700000
300000
380000
1C0000
0C0000
0E0000
060000
070000
030000
038000
018000
01C000
00E000
006000
007000
003000
003800
001800
001C00
000C00
000E00
000700
000300
000380
000180
0001C0
ENDCHAR

STARTCHAR bracketright
ENCODING 93
SWIDTH 351 0
DWIDTH 12 0
BBX 5 30 2 -6
BITMAP
F8
F8
18
18
18
18
18
18
18
18
18
18
18
18
18
18
18
18
18
18
18
18
18
18
18
18
18
18
F8
F8
ENDCHAR

STARTCHAR asciicircum
ENCODING 94
SWIDTH 672 0
DWIDTH 22 0
BBX 18 18 2 6
BITMAP
00C000
00E000
01E000
01B000
033000
033800
061800
061800
0C0C00
0C0C00
180600
180600
380300
300300
300180
600180
6001C0
C000C0
ENDCHAR

STARTCHAR underscore
ENCODING 95
SWIDTH 500 0
DWIDTH 17 0
BBX 17 2 0 -4
BITMAP
FFFF80
FFFF80
ENDCHAR

STARTCHAR quoteleft
ENCODING 96
SWIDTH 351 0
DWIDTH 12 0
BBX 3 9 5 15
BITMAP
60
40
C0
C0
C0
E0
E0
E0
E0
ENDCHAR

STARTCHAR a
ENCODING 97
SWIDTH 683 0
DWIDTH 23 0
BBX 18 18 2 0
BITMAP
03F0C0
0FFCC0
1E0EC0
3807C0
7003C0
6001C0
E000C0
C000C0
C000C0
C000C0
C000C0
E000C0
6001C0
7003C0
3807C0
1E1EC0
0FFCC0
03F0C0
ENDCHAR

STARTCHAR b
ENCODING 98
SWIDTH 682 0
DWIDTH 23 0
BBX 18 24 3 0
BITMAP
C00000
C00000
C00000
C00000
C00000
C00000
C3F000
CFFC00
DC0E00
F80700
F00380
E00180
C001C0
C000C0
C000C0
C000C0
C000C0
C001C0
E00180
F00380
D80700
DE1E00
CFFC00
C3F000
ENDCHAR

STARTCHAR c
ENCODING 99
SWIDTH 647 0
DWIDTH 21 0
BBX 18 18 2 0
BITMAP
03F800
0FFE00
1E0F80
3803C0
700180
600000
E00000
C00000
C00000
C00000
C00000
E00000
600000
7001C0
380380
1E0F80
0FFE00
03F800
ENDCHAR

STARTCHAR d
ENCODING 100
SWIDTH 685 0
DWIDTH 23 0
BBX 18 24 2 0
BITMAP
0000C0
0000C0
0000C0
0000C0
0000C0
0000C0
03F0C0
0FFCC0
1E0EC0
380740
7003C0
6001C0
E000C0
C000C0
C000C0
C000C0
C000C0
E000C0
6001C0
7003C0
3807C0
1E0EC0
0FFCC0
03F0C0
ENDCHAR

STARTCHAR e
ENCODING 101
SWIDTH 650 0
DWIDTH 21 0
BBX 18 18 2 0
BITMAP
03F000
0FFC00
1C0F00
380380
700180
E001C0
C000C0
FFFFC0
FFFFC0
C00000
C00000
E00000
6001C0
700380
380780
1E1F00
0FFC00
03F800
ENDCHAR

STARTCHAR f
ENCODING 102
SWIDTH 314 0
DWIDTH 10 0
BBX 8 25 2 0
BITMAP
1F
3F
39
30
30
30
30
FF
FF
30
30
30
30
30
30
30
30
30
30
30
30
30
30
30
30
ENDCHAR

STARTCHAR g
ENCODING 103
SWIDTH 673 0
DWIDTH 22 0
BBX 18 24 2 -6
BITMAP
03F0C0
0FFCC0
1E1EC0
3807C0
7003C0
6001C0
E000C0
C000C0
C000C0
C000C0
C000C0
E000C0
6001C0
7003C0
3807C0
1E0EC0
0FFCC0
03F0C0
0001C0
E00180
700380
3C0F00
1FFE00
07F800
ENDCHAR

STARTCHAR h
ENCODING 104
SWIDTH 610 0
DWIDTH 20 0
BBX 15 24 3 0
BITMAP
C000
C000
C000
C000
C000
C000
C3E0
CFF8
DC3C
D00C
F00E
E006
E006
C006
C006
C006
C006
C006
C006
C006
C006
C006
C006
C006
ENDCHAR

STARTCHAR i
ENCODING 105
SWIDTH 200 0
DWIDTH 7 0
BBX 4 25 1 0
BITMAP
60
F0
F0
60
00
00
00
60
60
60
60
60
60
60
60
60
60
60
60
60
60
60
60
60
60
ENDCHAR

STARTCHAR j
ENCODING 106
SWIDTH 203 0
DWIDTH 7 0
BBX 6 31 -1 -6
BITMAP
18
3C
3C
18
00
00
00
18
18
18
18
18
18
18
18
18
18
18
18
18
18
18
18
18
18
18
18
18
B8
F8
F0
ENDCHAR

STARTCHAR k
ENCODING 107
SWIDTH 502 0
DWIDTH 17 0
BBX 14 24 3 0
BITMAP
C000
C000
C000
C000
C000
C000
C03C
C070
C0E0
C3C0
C780
CE00
DC00
F800
F000
F800
DC00
CE00
C700
C380
C1E0
C0F0
C078
C01C
ENDCHAR

STARTCHAR l
ENCODING 108
SWIDTH 200 0
DWIDTH 7 0
BBX 2 24 2 0
BITMAP
C0
C0
C0
C0
C0
C0
C0
C0
C0
C0
C0
C0
C0
C0
C0
C0
C0
C0
C0
C0
C0
C0
C0
C0
ENDCHAR

STARTCHAR m
ENCODING 109
SWIDTH 938 0
DWIDTH 31 0
BBX 26 18 3 0
BITMAP
C7E07E00
CFF0FF00
DC39C380
F01F01C0
E01E00C0
E00E00C0
E00C00C0
C00C00C0
C00C00C0
C00C00C0
C00C00C0
C00C00C0
C00C00C0
C00C00C0
C00C00C0
C00C00C0
C00C00C0
C00C00C0
ENDCHAR

STARTCHAR n
ENCODING 110
SWIDTH 610 0
DWIDTH 20 0
BBX 15 18 3 0
BITMAP
C3E0
CFF8
DC3C
D00C
F00E
E006
E006
C006
C006
C006
C006
C006
C006
C006
C006
C006
C006
C006
ENDCHAR

STARTCHAR o
ENCODING 111
SWIDTH 655 0
DWIDTH 22 0
BBX 18 18 2 0
BITMAP
03F000
0FFC00
1E1E00
380700
700380
600180
E001C0
C000C0
C000C0
C000C0
C000C0
E001C0
600180
700380
380700
1C1E00
0FFC00
03F000
ENDCHAR

STARTCHAR p
ENCODING 112
SWIDTH 682 0
DWIDTH 23 0
BBX 18 24 3 -6
BITMAP
C3F000
CFFC00
DC1E00
F80700
F00380
E00180
C001C0
C000C0
C000C0
C000C0
C000C0
C001C0
E00180
F00380
F80700
DC1E00
CFFC00
C3F000
C00000
C00000
C00000
C00000
C00000
C00000
ENDCHAR

STARTCHAR q
ENCODING 113
SWIDTH 682 0
DWIDTH 23 0
BBX 18 24 2 -6
BITMAP
03F0C0
0FFCC0
1E0EC0
3807C0
7003C0
6001C0
E000C0
C000C0
C000C0
C000C0
C000C0
E000C0
6001C0
7003C0
3807C0
1E0EC0
0FFCC0
03F0C0
0000C0
0000C0
0000C0
0000C0
0000C0
0000C0
ENDCHAR

STARTCHAR r
ENCODING 114
SWIDTH 301 0
DWIDTH 10 0
BBX 9 18 2 0
BITMAP
C780
DF00
D800
F000
E000
E000
C000
C000
C000
C000
C000
C000
C000
C000
C000
C000
C000
C000
ENDCHAR

STARTCHAR s
ENCODING 115
SWIDTH 388 0
DWIDTH 13 0
BBX 11 18 0 0
BITMAP
1F80
3FC0
70E0
6040
6000
6000
7000
3C00
1F00
0780
01C0
00E0
0060
0060
40E0
F1C0
7FC0
1F00
ENDCHAR

STARTCHAR t
ENCODING 116
SWIDTH 339 0
DWIDTH 11 0
BBX 9 25 2 0
BITMAP
1800
1800
1800
1800
1800
1800
1800
FF80
FF80
1800
1800
1800
1800
1800
1800
1800
1800
1800
1800
1800
1800
1800
1800
1800
1800
ENDCHAR

STARTCHAR u
ENCODING 117
SWIDTH 608 0
DWIDTH 20 0
BBX 15 18 2 0
BITMAP
C006
C006
C006
C006
C006
C006
C006
C006
C006
C006
C006
C006
E006
E00E
701C
383C
1FF8
0FE0
ENDCHAR

STARTCHAR v
ENCODING 118
SWIDTH 554 0
DWIDTH 18 0
BBX 16 18 1 0
BITMAP
C003
E007
6006
700E
300C
380C
181C
1C18
0C38
0E30
0670
0660
0360
03C0
03C0
0180
0180
0080
ENDCHAR

STARTCHAR w
ENCODING 119
SWIDTH 831 0
DWIDTH 27 0
BBX 27 18 0 0
BITMAP
E0040060
600400E0
700E00C0
300E00C0
300F0180
381D0180
181B8380
1C398300
0C31C700
0C70C600
0E60C600
06E0EC00
07406C00
03C07C00
03C03800
01803800
01801000
01001000
ENDCHAR

STARTCHAR x
ENCODING 120
SWIDTH 480 0
DWIDTH 16 0
BBX 16 18 0 0
BITMAP
600E
700C
381C
1C38
0C70
0E60
0760
03C0
0380
03C0
0760
0E60
0C70
1C38
381C
700C
700E
E007
ENDCHAR

STARTCHAR y
ENCODING 121
SWIDTH 536 0
DWIDTH 18 0
BBX 16 24 1 -6
BITMAP
C003
E007
6006
700E
300C
300C
381C
1818
1C38
0C30
0E70
0660
07E0
03C0
03C0
01C0
0180
0380
0300
0700
0600
0E00
0C00
1C00
ENDCHAR

STARTCHAR z
ENCODING 122
SWIDTH 425 0
DWIDTH 14 0
BBX 14 18 0 0
BITMAP
7FFC
7FF8
0030
0070
00E0
00E0
01C0
0180
0380
0700
0600
0E00
0C00
1C00
3800
3000
7FFC
FFFC
ENDCHAR

STARTCHAR braceleft
ENCODING 123
SWIDTH 351 0
DWIDTH 12 0
BBX 9 30 1 -6
BITMAP
0780
0F80
0E00
1C00
1C00
1C00
1C00
1C00
1C00
1C00
1C00
1C00
3800
7800
C000
F000
7800
3800
1C00
1C00
1C00
1C00
1C00
1C00
1C00
1C00
1C00
0E00
0F80
0780
ENDCHAR

STARTCHAR bar
ENCODING 124
SWIDTH 672 0
DWIDTH 22 0
BBX 2 30 10 -6
BITMAP
C0
C0
C0
C0
C0
C0
C0
C0
C0
C0
C0
C0
C0
C0
C0
C0
C0
C0
C0
C0
C0
C0
C0
C0
C0
C0
C0
C0
C0
C0
ENDCHAR

STARTCHAR braceright
ENCODING 125
SWIDTH 351 0
DWIDTH 12 0
BBX 9 30 1 -6
BITMAP
F000
F800
3C00
1C00
1C00
1C00
1C00
1C00
1C00
1C00
1C00
0C00
0E00
0F00
0180
0780
0F00
0E00
1C00
1C00
1C00
1C00
1C00
1C00
1C00
1C00
1C00
3800
F800
F000
ENDCHAR

STARTCHAR asciitilde
ENCODING 126
SWIDTH 606 0
DWIDTH 20 0
BBX 16 5 2 9
BITMAP
7E00
FF81
E7E7
81FF
003E
ENDCHAR

STARTCHAR space
ENCODING 160
SWIDTH 277 0
DWIDTH 11 0
BBX 0 0 0 0
BITMAP
ENDCHAR

STARTCHAR exclamdown
ENCODING 161
SWIDTH 295 0
DWIDTH 10 0
BBX 4 24 3 -6
BITMAP
60
F0
F0
60
00
00
60
60
60
60
60
60
60
60
60
60
60
60
60
60
60
60
60
60
ENDCHAR

STARTCHAR cent
ENCODING 162
SWIDTH 554 0
DWIDTH 18 0
BBX 16 26 2 -4
BITMAP
0002
0007
0006
000C
07FC
0FFC
3C3E
3836
7072
6060
E0E0
C0C0
C1C0
C180
C380
E300
6700
7600
3E04
3C1E
1FFC
1BF0
3800
3000
7000
6000
ENDCHAR

STARTCHAR sterling
ENCODING 163
SWIDTH 554 0
DWIDTH 18 0
BBX 16 24 1 0
BITMAP
01F0
07F8
0E1C
0C0C
0C06
0C06
0C00
0C00
0600
0600
7FF0
7FF0
0300
0300
0300
0300
0300
0300
7F03
FF03
E783
C7E7
FEFE
7C3E
ENDCHAR

STARTCHAR currency
ENCODING 164
SWIDTH 554 0
DWIDTH 18 0
BBX 16 16 1 4
BITMAP
C7E2
EFFB
3C3C
700E
6006
E007
C003
C003
C003
C003
E007
6006
300C
7C3E
EFFB
47E2
ENDCHAR

STARTCHAR yen
ENCODING 165
SWIDTH 554 0
DWIDTH 18 0
BBX 16 24 1 0
BITMAP
E007
6006
700E
300C
381C
1C38
1C38
0E70
0660
0760
03C0
0180
7FFE
7FFE
0180
0180
7FFE
7FFE
0180
0180
0180
0180
0180
0180
ENDCHAR

STARTCHAR brokenbar
ENCODING 166
SWIDTH 672 0
DWIDTH 22 0
BBX 2 30 10 -6
BITMAP
C0
C0
C0
C0
C0
C0
C0
C0
C0
C0
00
00
00
00
00
00
00
00
00
00
C0
C0
C0
C0
C0
C0
C0
C0
C0
C0
ENDCHAR

STARTCHAR section
ENCODING 167
SWIDTH 615 0
DWIDTH 20 0
BBX 13 31 3 -6
BITMAP
0FC0
3FE0
7870
7030
6038
6000
7000
3000
1C00
0E00
3F80
71C0
E0F0
C070
C038
C018
E018
7038
3C70
1FE0
0780
03C0
01E0
0060
0070
0030
E030
6070
70F0
3FE0
0F80
ENDCHAR

STARTCHAR dieresis
ENCODING 168
SWIDTH 369 0
DWIDTH 12 0
BBX 11 4 1 21
BITMAP
60C0
F1E0
F1E0
60C0
ENDCHAR

STARTCHAR copyright
ENCODING 169
SWIDTH 747 0
DWIDTH 25 0
BBX 24 24 0 0
BITMAP
007E00
01FFC0
0780E0
0E0030
180018
303E0C
30FF06
61C386
6181C2
C380C3
C30003
C30003
C30003
C30003
C380C3
618182
61C386
30FF0E
303C0C
180018
0E0070
0780E0
01FF80
003E00
ENDCHAR

STARTCHAR ordfeminine
ENCODING 170
SWIDTH 369 0
DWIDTH 12 0
BBX 10 12 1 12
BITMAP
1CC0
3FC0
61C0
E0C0
C0C0
C0C0
C0C0
C0C0
60C0
61C0
3FC0
1CC0
ENDCHAR

STARTCHAR guillemotleft
ENCODING 171
SWIDTH 425 0
DWIDTH 14 0
BBX 14 18 0 0
BITMAP
0C1C
1C18
1838
1830
3830
3070
7060
60E0
E0C0
60C0
60E0
7060
3070
3830
1830
1838
1C18
0C1C
ENDCHAR

STARTCHAR logicalnot
ENCODING 172
SWIDTH 606 0
DWIDTH 20 0
BBX 16 9 2 7
BITMAP
FFFF
FFFF
0003
0003
0003
0003
0003
0003
0003
ENDCHAR

STARTCHAR hyphen
ENCODING 173
SWIDTH 332 0
DWIDTH 11 0
BBX 9 2 1 8
BITMAP
FF80
FF80
ENDCHAR

STARTCHAR registered
ENCODING 174
SWIDTH 747 0
DWIDTH 25 0
BBX 24 24 0 0
BITMAP
007E00
03FFC0
0700E0
0C0038
180018
31FF0C
61FF86
6181C6
4180C2
C180C3
C181C3
C1FF03
C1FF83
C181C3
C180C3
6180C2
6180C6
3180C6
3180EC
180018
0E0030
0780E0
01FFC0
007E00
ENDCHAR

STARTCHAR macron
ENCODING 175
SWIDTH 485 0
DWIDTH 16 0
BBX 12 2 2 22
BITMAP
FFF0
FFF0
ENDCHAR

STARTCHAR degree
ENCODING 176
SWIDTH 400 0
DWIDTH 13 0
BBX 11 11 1 13
BITMAP
1F00
3F80
60C0
E060
C060
C060
C060
E060
70C0
3F80
0F00
ENDCHAR

STARTCHAR plusminus
ENCODING 177
SWIDTH 606 0
DWIDTH 20 0
BBX 16 21 2 1
BITMAP
0180
0180
0180
0180
0180
0180
0180
FFFF
FFFF
0180
0180
0180
0180
0180
0180
0180
0000
0000
0000
FFFF
FFFF
ENDCHAR

STARTCHAR twosuperior
ENCODING 178
SWIDTH 332 0
DWIDTH 11 0
BBX 10 13 0 11
BITMAP
1E00
3F80
61C0
40C0
40C0
00C0
0180
0300
0E00
1C00
3000
7FC0
FFC0
ENDCHAR

STARTCHAR threesuperior
ENCODING 179
SWIDTH 332 0
DWIDTH 11 0
BBX 10 13 1 11
BITMAP
1E00
7F00
6180
C180
0180
0F00
0F80
0080
00C0
C0C0
6180
7F80
1E00
ENDCHAR

STARTCHAR acute
ENCODING 180
SWIDTH 375 0
DWIDTH 12 0
BBX 7 5 4 21
BITMAP
1E
3C
38
70
E0
ENDCHAR

STARTCHAR mu
ENCODING 181
SWIDTH 608 0
DWIDTH 20 0
BBX 14 24 3 -6
BITMAP
C00C
C00C
C00C
C00C
C00C
C00C
C00C
C00C
C00C
C00C
C00C
C00C
C00C
E01C
F03C
FCFC
DFEC
CFCC
C000
C000
C000
C000
C000
C000
ENDCHAR

STARTCHAR paragraph
ENCODING 182
SWIDTH 564 0
DWIDTH 19 0
BBX 14 28 2 -4
BITMAP
1FFC
3F18
7F18
FF18
FF18
FF18
FF18
FF18
FF18
FF18
7F18
3F18
1F18
0318
0318
0318
0318
0318
0318
0318
0318
0318
0318
0318
0318
0318
0318
0318
ENDCHAR

STARTCHAR periodcentered
ENCODING 183
SWIDTH 277 0
DWIDTH 9 0
BBX 4 4 3 10
BITMAP
60
F0
F0
60
ENDCHAR

STARTCHAR cedilla
ENCODING 184
SWIDTH 324 0
DWIDTH 11 0
BBX 6 6 3 -6
BITMAP
30
30
3C
0C
8C
F8
ENDCHAR

STARTCHAR onesuperior
ENCODING 185
SWIDTH 332 0
DWIDTH 11 0
BBX 4 12 3 12
BITMAP
70
F0
30
30
30
30
30
30
30
30
30
30
ENDCHAR

STARTCHAR ordmasculine
ENCODING 186
SWIDTH 369 0
DWIDTH 12 0
BBX 11 12 1 12
BITMAP
1E00
3F80
71C0
60C0
C060
C060
C060
C060
60C0
71C0
3F80
0E00
ENDCHAR

STARTCHAR guillemotright
ENCODING 187
SWIDTH 425 0
DWIDTH 14 0
BBX 14 18 0 0
BITMAP
E0C0
60E0
7060
3070
3870
1830
1838
1C18
0C1C
0C1C
1C18
1838
3830
3070
3060
7060
60E0
E0C0
ENDCHAR

STARTCHAR onequarter
ENCODING 188
SWIDTH 831 0
DWIDTH 27 0
BBX 24 24 2 0
BITMAP
700060
F000C0
300080
300180
300300
300300
300600
300400
300C00
301800
301800
303004
002004
00600C
00C01C
00C03C
01806C
0100CC
03018C
0201FF
0607FF
0C000C
0C000C
18000C
ENDCHAR

STARTCHAR onehalf
ENCODING 189
SWIDTH 831 0
DWIDTH 27 0
BBX 24 24 2 0
BITMAP
7000E0
F000C0
300180
300100
300300
300600
300600
300C00
300800
301800
303000
303038
0060FE
004187
00C103
018103
018003
030006
06000C
060038
0C0070
0C00C0
1801FF
3003FF
ENDCHAR

STARTCHAR threequarters
ENCODING 190
SWIDTH 831 0
DWIDTH 27 0
BBX 26 24 1 0
BITMAP
1E000C00
7F001800
61803000
C1803000
01806000
0F004000
0F80C000
00818000
00C18000
C0C30000
61820000
7F860100
1E0C0100
000C0300
00180700
00100F00
00301B00
00603300
00606300
00C07FC0
0081FFC0
01800300
03000300
07000300
ENDCHAR

STARTCHAR questiondown
ENCODING 191
SWIDTH 591 0
DWIDTH 20 0
BBX 14 24 3 -6
BITMAP
0300
0780
0780
0700
0000
0000
0FC0
3FE0
7870
7030
6030
0070
00F0
07E0
1F80
7C00
F000
E01C
C01C
C018
E038
7870
3FF0
1FC0
ENDCHAR

STARTCHAR Agrave
ENCODING 192
SWIDTH 740 0
DWIDTH 24 0
BBX 23 31 1 0
BITMAP
01C000
00E000
007000
003800
001C00
000000
000000
001000
003000
003800
007800
007C00
00EC00
00EE00
00CE00
01C700
018700
038300
030380
070180
0601C0
0FFFC0
0FFFE0
1C0060
180070
380030
380038
700038
70001C
E0001C
E0000E
ENDCHAR

STARTCHAR Aacute
ENCODING 193
SWIDTH 740 0
DWIDTH 24 0
BBX 23 31 1 0
BITMAP
000F00
001E00
001C00
003800
007000
000000
000000
001000
003000
003800
007800
007C00
00EC00
00EE00
00CE00
01C700
018700
038300
030380
070180
0601C0
0FFFC0
0FFFE0
1C0060
180070
380030
380038
700038
70001C
E0001C
E0000E
ENDCHAR

STARTCHAR Acircumflex
ENCODING 194
SWIDTH 740 0
DWIDTH 24 0
BBX 23 30 1 0
BITMAP
003800
007C00
01EE00
078780
000000
000000
001000
003000
003800
007800
007C00
00EC00
00EE00
00CE00
01C700
018700
038300
030380
070180
0601C0
0FFFC0
0FFFE0
1C0060
180070
380030
380038
700038
70001C
E0001C
E0000E
ENDCHAR

STARTCHAR Atilde
ENCODING 195
SWIDTH 740 0
DWIDTH 24 0
BBX 23 29 1 0
BITMAP
01E100
07FF80
021F00
000000
000000
001000
003000
003800
007800
007C00
00EC00
00EE00
00CE00
01C700
018700
038300
030380
070180
0601C0
0FFFC0
0FFFE0
1C0060
180070
380030
380038
700038
70001C
E0001C
E0000E
ENDCHAR

STARTCHAR Adieresis
ENCODING 196
SWIDTH 740 0
DWIDTH 24 0
BBX 23 30 1 0
BITMAP
018300
03C780
03C780
018300
000000
000000
001000
001800
003800
003800
007C00
006C00
00EE00
00C600
01C700
018300
038380
030180
0701C0
0600C0
0FFFE0
0FFFE0
1C0070
1C0030
380038
380018
70001C
70001C
E0000E
E0000E
ENDCHAR

STARTCHAR Aring
ENCODING 197
SWIDTH 740 0
DWIDTH 24 0
BBX 23 32 1 0
BITMAP
007C00
004600
008200
008200
008200
004400
003800
000000
001000
001800
003800
003800
007C00
006C00
00EE00
00C600
01C700
018300
038380
030180
0701C0
0600C0
0FFFE0
0FFFE0
1C0070
1C0070
380038
380038
70001C
70001C
E0000E
E0000E
ENDCHAR

STARTCHAR AE
ENCODING 198
SWIDTH 992 0
DWIDTH 33 0
BBX 30 24 0 0
BITMAP
0001FFFC
0001FFFC
0003E000
00076000
00076000
000E6000
001C6000
001C6000
00386000
00306000
00707FFC
00E07FFC
00E06000
01C06000
03FFE000
03FFE000
07006000
06006000
0E006000
1C006000
18006000
38006000
70007FFC
F0007FFC
ENDCHAR

STARTCHAR Ccedilla
ENCODING 199
SWIDTH 813 0
DWIDTH 27 0
BBX 23 30 2 -6
BITMAP
00FF80
03FFF0
0FC0F8
1E003C
3C000E
380004
700000
600000
E00000
E00000
C00000
C00000
C00000
C00000
E00000
E00000
600000
700000
380004
3C000E
1E003C
0FC0F8
03FFF0
00FF80
001800
001000
001E00
000600
004E00
00FC00
ENDCHAR

STARTCHAR Egrave
ENCODING 200
SWIDTH 536 0
DWIDTH 18 0
BBX 13 31 3 0
BITMAP
3C00
0E00
0700
0300
0180
0000
0000
FFF8
FFF8
C000
C000
C000
C000
C000
C000
C000
C000
FFF8
FFF8
C000
C000
C000
C000
C000
C000
C000
C000
C000
C000
FFF8
FFF8
ENDCHAR

STARTCHAR Eacute
ENCODING 201
SWIDTH 536 0
DWIDTH 18 0
BBX 13 31 3 0
BITMAP
01E0
01C0
0380
0700
0E00
0000
0000
FFF8
FFF8
C000
C000
C000
C000
C000
C000
C000
C000
FFF8
FFF8
C000
C000
C000
C000
C000
C000
C000
C000
C000
C000
FFF8
FFF8
ENDCHAR

STARTCHAR Ecircumflex
ENCODING 202
SWIDTH 536 0
DWIDTH 18 0
BBX 13 30 3 0
BITMAP
0780
0FC0
38E0
7070
0000
0000
FFF8
FFF8
C000
C000
C000
C000
C000
C000
C000
C000
FFF8
FFF8
C000
C000
C000
C000
C000
C000
C000
C000
C000
C000
FFF8
FFF8
ENDCHAR

STARTCHAR Edieresis
ENCODING 203
SWIDTH 536 0
DWIDTH 18 0
BBX 13 30 3 0
BITMAP
3060
78F0
78F0
3060
0000
0000
FFF8
FFF8
C000
C000
C000
C000
C000
C000
C000
C000
FFF8
FFF8
C000
C000
C000
C000
C000
C000
C000
C000
C000
C000
FFF8
FFF8
ENDCHAR

STARTCHAR Igrave
ENCODING 204
SWIDTH 226 0
DWIDTH 7 0
BBX 7 31 0 0
BITMAP
E0
70
38
18
0E
00
00
18
18
18
18
18
18
18
18
18
18
18
18
18
18
18
18
18
18
18
18
18
18
18
18
ENDCHAR

STARTCHAR Iacute
ENCODING 205
SWIDTH 226 0
DWIDTH 7 0
BBX 7 31 2 0
BITMAP
1E
38
70
60
E0
00
00
60
60
60
60
60
60
60
60
60
60
60
60
60
60
60
60
60
60
60
60
60
60
60
60
ENDCHAR

STARTCHAR Icircumflex
ENCODING 206
SWIDTH 226 0
DWIDTH 7 0
BBX 12 30 -2 0
BITMAP
0700
1F80
39C0
F0F0
0000
0000
0600
0600
0600
0600
0600
0600
0600
0600
0600
0600
0600
0600
0600
0600
0600
0600
0600
0600
0600
0600
0600
0600
0600
0600
ENDCHAR

STARTCHAR Idieresis
ENCODING 207
SWIDTH 226 0
DWIDTH 7 0
BBX 10 30 -1 0
BITMAP
6180
F3C0
F3C0
6180
0000
0000
0C00
0C00
0C00
0C00
0C00
0C00
0C00
0C00
0C00
0C00
0C00
0C00
0C00
0C00
0C00
0C00
0C00
0C00
0C00
0C00
0C00
0C00
0C00
0C00
ENDCHAR

STARTCHAR Gbreve
ENCODING 208
SWIDTH 872 0
DWIDTH 29 0
BBX 25 30 2 0
BITMAP
0180C000
01C1C000
00FF8000
003E0000
00000000
00000000
00FF8000
03FFF000
0FC1F800
1F003C00
3C000E00
38000400
70000000
70000000
E0000000
E0000000
C0000000
C0000000
C0000000
C001FF80
E001FF80
E0000380
60000300
70000700
38000700
3C000E00
1E003C00
07C0F800
03FFF000
007F8000
ENDCHAR

STARTCHAR Ntilde
ENCODING 209
SWIDTH 740 0
DWIDTH 24 0
BBX 18 29 3 0
BITMAP
0F8400
1FFE00
087800
000000
000000
8000C0
8000C0
C000C0
E000C0
F000C0
F800C0
DC00C0
CE00C0
CE00C0
C700C0
C380C0
C1C0C0
C0E0C0
C070C0
C038C0
C038C0
C01CC0
C00EC0
C007C0
C003C0
C001C0
C000C0
C00040
C00040
ENDCHAR

STARTCHAR Ograve
ENCODING 210
SWIDTH 869 0
DWIDTH 29 0
BBX 25 31 2 0
BITMAP
00F00000
00700000
00380000
001C0000
000E0000
00000000
00000000
00FF8000
03FFE000
0FC1F800
1E003C00
3C001E00
38000E00
70000700
60000300
E0000380
E0000380
C0000180
C0000180
C0000180
C0000180
E0000380
E0000380
60000300
70000700
38000E00
3C001E00
1E003C00
07C1F800
03FFE000
00FF8000
ENDCHAR

STARTCHAR Oacute
ENCODING 211
SWIDTH 869 0
DWIDTH 29 0
BBX 25 31 2 0
BITMAP
00038000
00070000
000E0000
001C0000
00380000
00000000
00000000
00FF8000
03FFE000
0FC1F800
1E003C00
3C001E00
38000E00
70000700
60000300
E0000380
E0000380
C0000180
C0000180
C0000180
C0000180
E0000380
E0000380
60000300
70000700
38000E00
3C001E00
1E003C00
07C1F800
03FFE000
00FF8000
ENDCHAR

STARTCHAR Ocircumflex
ENCODING 212
SWIDTH 869 0
DWIDTH 29 0
BBX 25 30 2 0
BITMAP
001C0000
003E0000
00770000
00E38000
01C1E000
00000000
00FF8000
03FFE000
0FC1F800
1E003C00
3C001E00
38000E00
70000700
60000300
E0000380
E0000380
C0000180
C0000180
C0000180
C0000180
E0000380
E0000380
60000300
70000700
38000E00
3C001E00
1E003C00
07C1F800
03FFE000
00FF8000
ENDCHAR

STARTCHAR Otilde
ENCODING 213
SWIDTH 869 0
DWIDTH 29 0
BBX 25 29 2 0
BITMAP
00F8C000
03FFE000
018F8000
00000000
00000000
00FF8000
03FFE000
0FC1F800
1E003C00
3C001E00
38000E00
70000700
60000300
E0000380
E0000380
C0000180
C0000180
C0000180
C0000180
E0000380
E0000380
60000300
70000700
38000E00
3C001E00
1E003C00
07C1F800
03FFE000
00FF8000
ENDCHAR

STARTCHAR Odieresis
ENCODING 214
SWIDTH 869 0
DWIDTH 29 0
BBX 25 29 2 0
BITMAP
00C18000
01E3C000
01E3C000
00C18000
00000000
00FF8000
03FFE000
0FC1F800
1E003C00
3C001E00
38000E00
70000700
60000300
E0000380
E0000380
C0000180
C0000180
C0000180
C0000180
E0000380
E0000380
60000300
70000700
38000E00
3C001E00
1E003C00
0FC1F800
03FFE000
00FF8000
ENDCHAR

STARTCHAR multiply
ENCODING 215
SWIDTH 606 0
DWIDTH 20 0
BBX 14 14 3 5
BITMAP
4008
E01C
7038
3870
1CE0
0EC0
0780
0780
0FC0
1CE0
3870
7038
E01C
4008
ENDCHAR

STARTCHAR Oslash
ENCODING 216
SWIDTH 868 0
DWIDTH 29 0
BBX 25 26 2 -1
BITMAP
00000200
00FF8300
03FFE700
0FC1FE00
1E003C00
3C003E00
38007600
7000E700
6001C300
E0038380
E0038180
C0070180
C00E0180
C01C0180
C0380180
E0700380
E0E00380
61C00300
73800700
3B800E00
3F001E00
0E003C00
1FC1F800
3BFFE000
70FF8000
20000000
ENDCHAR

STARTCHAR Ugrave
ENCODING 217
SWIDTH 655 0
DWIDTH 22 0
BBX 15 31 3 0
BITMAP
1E00
0E00
0700
0380
01C0
0000
0000
C006
C006
C006
C006
C006
C006
C006
C006
C006
C006
C006
C006
C006
C006
C006
C006
C006
C006
E00E
E00C
701C
3838
1FF0
0FE0
ENDCHAR

STARTCHAR Uacute
ENCODING 218
SWIDTH 655 0
DWIDTH 22 0
BBX 15 31 3 0
BITMAP
00F0
00E0
01C0
0380
0700
0000
0000
C006
C006
C006
C006
C006
C006
C006
C006
C006
C006
C006
C006
C006
C006
C006
C006
C006
C006
E00E
E00C
701C
3838
1FF0
0FE0
ENDCHAR

STARTCHAR Ucircumflex
ENCODING 219
SWIDTH 655 0
DWIDTH 22 0
BBX 15 30 3 0
BITMAP
0380
07C0
0EE0
3C78
0000
0000
C006
C006
C006
C006
C006
C006
C006
C006
C006
C006
C006
C006
C006
C006
C006
C006
C006
C006
E00E
E00C
701C
3838
1FF0
0FE0
ENDCHAR

STARTCHAR Udieresis
ENCODING 220
SWIDTH 655 0
DWIDTH 22 0
BBX 15 30 3 0
BITMAP
1830
3C78
3C78
1830
0000
0000
C006
C006
C006
C006
C006
C006
C006
C006
C006
C006
C006
C006
C006
C006
C006
C006
C006
C006
E006
E00E
701C
3838
1FF0
0FE0
ENDCHAR

STARTCHAR Idotaccent
ENCODING 221
SWIDTH 226 0
DWIDTH 7 0
BBX 4 30 2 0
BITMAP
60
F0
F0
60
00
00
60
60
60
60
60
60
60
60
60
60
60
60
60
60
60
60
60
60
60
60
60
60
60
60
ENDCHAR

STARTCHAR Scedilla
ENCODING 222
SWIDTH 498 0
DWIDTH 16 0
BBX 14 30 0 -6
BITMAP
0FC0
1FF0
3C78
3838
3010
3000
3800
3800
1C00
0E00
0780
03C0
01E0
00F0
0078
0038
001C
001C
601C
E01C
7038
3878
1FF0
0FC0
0300
0300
03C0
00C0
09C0
0F80
ENDCHAR

STARTCHAR germandbls
ENCODING 223
SWIDTH 554 0
DWIDTH 18 0
BBX 14 25 3 0
BITMAP
0FC0
3FE0
7870
6038
E018
C018
C018
C038
C030
C0F0
C7C0
C780
C1E0
C038
C018
C01C
C00C
C00C
C00C
C00C
C01C
C038
C878
CFF0
CFC0
ENDCHAR

STARTCHAR agrave
ENCODING 224
SWIDTH 683 0
DWIDTH 23 0
BBX 18 26 2 0
BITMAP
070000
038000
038000
01C000
00F000
000000
000000
000000
01E000
0FFCC0
1E0EC0
3807C0
7003C0
6001C0
E000C0
C000C0
C000C0
C000C0
C000C0
E001C0
6001C0
7003C0
3807C0
1E1EC0
0FFCC0
03F0C0
ENDCHAR

STARTCHAR aacute
ENCODING 225
SWIDTH 683 0
DWIDTH 23 0
BBX 18 26 2 0
BITMAP
003C00
007800
007000
00E000
01C000
000000
000000
000000
01E000
0FFCC0
1E0EC0
3807C0
7003C0
6001C0
E000C0
C000C0
C000C0
C000C0
C000C0
E001C0
6001C0
7003C0
3807C0
1E1EC0
0FFCC0
03F0C0
ENDCHAR

STARTCHAR acircumflex
ENCODING 226
SWIDTH 683 0
DWIDTH 23 0
BBX 18 25 2 0
BITMAP
00C000
01E000
07B800
1E1E00
000000
000000
000000
01E000
0FFCC0
1E0EC0
3807C0
7003C0
6001C0
E000C0
C000C0
C000C0
C000C0
C000C0
E001C0
6001C0
7003C0
3807C0
1E1EC0
0FFCC0
03F0C0
ENDCHAR

STARTCHAR atilde
ENCODING 227
SWIDTH 683 0
DWIDTH 23 0
BBX 18 24 2 0
BITMAP
0F8400
1FFE00
087800
000000
000000
000000
01E000
0FFCC0
1E0EC0
3807C0
7003C0
6001C0
E000C0
C000C0
C000C0
C000C0
C000C0
E001C0
6001C0
7003C0
3807C0
1E1EC0
0FFCC0
03F0C0
ENDCHAR

STARTCHAR adieresis
ENCODING 228
SWIDTH 683 0
DWIDTH 23 0
BBX 18 25 2 0
BITMAP
061800
0F3C00
0F3C00
061800
000000
000000
000000
01E000
0FFCC0
1E0EC0
3807C0
7003C0
6001C0
E000C0
C000C0
C000C0
C000C0
C000C0
E001C0
6001C0
7003C0
3807C0
1E1EC0
0FFCC0
03F0C0
ENDCHAR

STARTCHAR aring
ENCODING 229
SWIDTH 683 0
DWIDTH 23 0
BBX 18 27 2 0
BITMAP
01E000
033000
021000
021000
021000
013000
01E000
000000
000000
01E000
0FFCC0
1E0EC0
3807C0
7003C0
6001C0
E000C0
C000C0
C000C0
C000C0
C000C0
E001C0
6001C0
7003C0
3807C0
1E1EC0
0FFCC0
03F0C0
ENDCHAR

STARTCHAR ae
ENCODING 230
SWIDTH 1157 0
DWIDTH 38 0
BBX 34 18 2 0
BITMAP
03F0C3F000
0FFCCFFC00
3E0EDC0F00
3807F80380
7003F00180
E001E001C0
E000C000C0
C000FFFFC0
C000FFFFC0
C000C00000
C000E00000
E001E00000
6001E001C0
7003F00180
3807D80380
1E1EDE0F00
0FFCCFFC00
03F0C3F000
ENDCHAR

STARTCHAR ccedilla
ENCODING 231
SWIDTH 647 0
DWIDTH 21 0
BBX 18 24 2 -6
BITMAP
03F800
0FFE00
1E0F00
3803C0
700180
600000
E00000
C00000
C00000
C00000
C00000
E00000
600000
7001C0
380380
1E0F00
0FFE00
03F800
00C000
00C000
00F000
003000
027000
03E000
ENDCHAR

STARTCHAR egrave
ENCODING 232
SWIDTH 650 0
DWIDTH 21 0
BBX 18 26 2 0
BITMAP
070000
038000
01C000
00E000
007000
000000
000000
000000
03F000
0FFC00
1C0F00
380380
700180
E001C0
C000C0
FFFFC0
FFFFC0
C00000
C00000
E00000
6001C0
700380
380780
1E1F00
0FFC00
03F800
ENDCHAR

STARTCHAR eacute
ENCODING 233
SWIDTH 650 0
DWIDTH 21 0
BBX 18 26 2 0
BITMAP
003C00
007000
00E000
00C000
018000
000000
000000
000000
03F000
0FFC00
1C0F00
380380
700180
E001C0
C000C0
FFFFC0
FFFFC0
C00000
C00000
E00000
6001C0
700380
380780
1E1F00
0FFC00
03F800
ENDCHAR

STARTCHAR ecircumflex
ENCODING 234
SWIDTH 650 0
DWIDTH 21 0
BBX 18 25 2 0
BITMAP
01E000
03F000
073800
1E1E00
000000
000000
000000
03F000
0FFC00
1C0F00
380380
700180
E001C0
C000C0
FFFFC0
FFFFC0
C00000
C00000
E00000
6001C0
700380
380780
1E1F00
0FFC00
03F800
ENDCHAR

STARTCHAR edieresis
ENCODING 235
SWIDTH 650 0
DWIDTH 21 0
BBX 18 25 2 0
BITMAP
061800
0F3C00
0F3C00
061800
000000
000000
000000
03F000
0FFC00
1E0F00
380780
700380
6001C0
E000C0
FFFFC0
FFFFC0
C00000
E00000
E00000
6001C0
700380
380700
1E1F00
0FFC00
03F000
ENDCHAR

STARTCHAR igrave
ENCODING 236
SWIDTH 200 0
DWIDTH 7 0
BBX 7 26 -1 0
BITMAP
E0
70
38
1C
0E
00
00
00
18
18
18
18
18
18
18
18
18
18
18
18
18
18
18
18
18
18
ENDCHAR

STARTCHAR iacute
ENCODING 237
SWIDTH 200 0
DWIDTH 7 0
BBX 7 26 1 0
BITMAP
1E
38
70
60
C0
00
00
00
60
60
60
60
60
60
60
60
60
60
60
60
60
60
60
60
60
60
ENDCHAR

STARTCHAR icircumflex
ENCODING 238
SWIDTH 200 0
DWIDTH 7 0
BBX 12 25 -3 0
BITMAP
0F00
1D80
39C0
F0F0
0000
0000
0000
0600
0600
0600
0600
0600
0600
0600
0600
0600
0600
0600
0600
0600
0600
0600
0600
0600
0600
ENDCHAR

STARTCHAR idieresis
ENCODING 239
SWIDTH 200 0
DWIDTH 7 0
BBX 10 25 -2 0
BITMAP
6180
F3C0
F3C0
6180
0000
0000
0000
0C00
0C00
0C00
0C00
0C00
0C00
0C00
0C00
0C00
0C00
0C00
0C00
0C00
0C00
0C00
0C00
0C00
0C00
ENDCHAR

STARTCHAR gbreve
ENCODING 240
SWIDTH 673 0
DWIDTH 22 0
BBX 18 31 2 -6
BITMAP
180E00
0E1C00
07F800
01F000
000000
000000
000000
03E000
0FFCC0
1E0EC0
3807C0
7003C0
6001C0
E000C0
C000C0
C000C0
C000C0
C000C0
E000C0
6001C0
7003C0
3807C0
1E0EC0
0FFCC0
03F0C0
0001C0
E00180
700380
3C0F00
1FFE00
07F800
ENDCHAR

STARTCHAR ntilde
ENCODING 241
SWIDTH 610 0
DWIDTH 20 0
BBX 15 24 3 0
BITMAP
1F18
3FF8
30F0
0000
0000
0000
03E0
CFF8
DC1C
F00C
F00E
E006
E006
C006
C006
C006
C006
C006
C006
C006
C006
C006
C006
C006
ENDCHAR

STARTCHAR ograve
ENCODING 242
SWIDTH 655 0
DWIDTH 22 0
BBX 18 26 2 0
BITMAP
070000
038000
01C000
00C000
007000
000000
000000
000000
03F000
0FFC00
1E1E00
380700
700380
600180
E001C0
C000C0
C000C0
C000C0
C000C0
E001C0
600180
700380
380700
1C1E00
0FFC00
03F000
ENDCHAR

STARTCHAR oacute
ENCODING 243
SWIDTH 655 0
DWIDTH 22 0
BBX 18 26 2 0
BITMAP
003C00
007000
00E000
00C000
018000
000000
000000
000000
03F000
0FFC00
1E1E00
380700
700380
600180
E001C0
C000C0
C000C0
C000C0
C000C0
E001C0
600180
700380
380700
1C1E00
0FFC00
03F000
ENDCHAR

STARTCHAR ocircumflex
ENCODING 244
SWIDTH 655 0
DWIDTH 22 0
BBX 18 25 2 0
BITMAP
01E000
03F000
073800
1E1E00
000000
000000
000000
03F000
0FFC00
1E1E00
380700
700380
600180
E001C0
C000C0
C000C0
C000C0
C000C0
E001C0
600180
700380
380700
1C1E00
0FFC00
03F000
ENDCHAR

STARTCHAR otilde
ENCODING 245
SWIDTH 655 0
DWIDTH 22 0
BBX 18 24 2 0
BITMAP
0F8400
1FFE00
087C00
000000
000000
000000
03F000
0FFC00
1E1E00
380700
700380
600180
E001C0
C000C0
C000C0
C000C0
C000C0
E001C0
600180
700380
380700
1C1E00
0FFC00
03F000
ENDCHAR

STARTCHAR odieresis
ENCODING 246
SWIDTH 655 0
DWIDTH 22 0
BBX 18 25 2 0
BITMAP
061800
0F3C00
0F3C00
061800
000000
000000
000000
03F000
0FFC00
1E1E00
380700
700380
600180
E001C0
C000C0
C000C0
C000C0
C000C0
E001C0
600180
700380
380700
1E1E00
0FFC00
03F000
ENDCHAR

STARTCHAR divide
ENCODING 247
SWIDTH 606 0
DWIDTH 20 0
BBX 17 15 2 4
BITMAP
01C000
01C000
01C000
000000
000000
000000
FFFF80
FFFF80
000000
000000
000000
000000
01C000
01C000
01C000
ENDCHAR

STARTCHAR oslash
ENCODING 248
SWIDTH 653 0
DWIDTH 22 0
BBX 18 19 2 -1
BITMAP
03F0C0
0FFD80
1E1F80
380700
700F80
601DC0
E019C0
C030C0
C060C0
C0C0C0
C1C0C0
E381C0
670180
7E0380
3C0700
1E1E00
3FFC00
73F000
200000
ENDCHAR

STARTCHAR ugrave
ENCODING 249
SWIDTH 608 0
DWIDTH 20 0
BBX 15 26 2 0
BITMAP
1E00
0700
0300
0180
01C0
0000
0000
0000
C006
C006
C006
C006
C006
C006
C006
C006
C006
C006
C006
C006
E006
600E
701C
383C
1FF8
0FE0
ENDCHAR

STARTCHAR uacute
ENCODING 250
SWIDTH 608 0
DWIDTH 20 0
BBX 15 26 2 0
BITMAP
00F0
01E0
01C0
0380
0700
0000
0000
0000
C006
C006
C006
C006
C006
C006
C006
C006
C006
C006
C006
C006
E006
600E
701C
383C
1FF8
0FE0
ENDCHAR

STARTCHAR ucircumflex
ENCODING 251
SWIDTH 608 0
DWIDTH 20 0
BBX 15 25 2 0
BITMAP
0380
07E0
1C70
3838
0000
0000
0000
C006
C006
C006
C006
C006
C006
C006
C006
C006
C006
C006
C006
E006
600E
701C
383C
1FF8
0FE0
ENDCHAR

STARTCHAR udieresis
ENCODING 252
SWIDTH 608 0
DWIDTH 20 0
BBX 15 25 2 0
BITMAP
1830
3C78
3C78
1830
0000
0000
0000
C006
C006
C006
C006
C006
C006
C006
C006
C006
C006
C006
C006
C006
600E
701C
383C
1FF8
0FE0
ENDCHAR

STARTCHAR dotlessi
ENCODING 253
SWIDTH 200 0
DWIDTH 7 0
BBX 2 18 2 0
BITMAP
C0
C0
C0
C0
C0
C0
C0
C0
C0
C0
C0
C0
C0
C0
C0
C0
C0
C0
ENDCHAR

STARTCHAR scedilla
ENCODING 254
SWIDTH 388 0
DWIDTH 13 0
BBX 10 24 1 -6
BITMAP
1F00
3F80
71C0
6080
6000
6000
7000
3C00
1E00
0780
0380
00C0
00C0
00C0
41C0
E380
7F80
1E00
0C00
0C00
0F00
0300
2300
3E00
ENDCHAR

STARTCHAR ydieresis
ENCODING 255
SWIDTH 536 0
DWIDTH 18 0
BBX 16 31 1 -6
BITMAP
1830
3C78
3C78
1830
0000
0000
0000
C003
E007
6006
700E
300C
300C
381C
1818
1C38
0C30
0E70
0660
07E0
03C0
03C0
01C0
0180
0380
0300
0700
0600
0E00
0C00
1C00
ENDCHAR
ENDFONT
